Coordinates
version=1
nRows=12
nColumns=28
inDegrees=yes

Units are S.I. units (second, meters, Newtons, ...)
Angles are in degrees.

endheader
time	pelvis_tilt	pelvis_list	pelvis_rotation	pelvis_tx	pelvis_ty	pelvis_tz	hip_flexion_r	hip_adduction_r	hip_rotation_r	knee_angle_r	ankle_angle_r	subtalar_angle_r	mtp_angle_r	hip_flexion_l	hip_adduction_l	hip_rotation_l	knee_angle_l	socket_flexion	socket_adduction	socket_rotation	socket_tx	socket_ty	socket_tz	foot_flex	lumbar_extension	lumbar_bending	lumbar_rotation
      0.32500000	      4.22952942	     -1.22570027	     -5.86823067	     -0.42459825	      1.02050230	      0.29137477	     12.02649616	      2.56160619	      3.40564039	    -64.88364402	     -3.88250697	    -19.87504930	     26.59332850	     -6.71509037	      0.93679142	      8.26273908	      6.37539381	      5.90120484	      0.00000000	      0.00000000	      0.00000000	      0.00000000	      0.00000000	      1.98608278	    -13.15165879	     -3.17174779	      6.17220982
      0.32916667	      4.22223234	     -1.51067338	     -5.63329494	     -0.41953714	      1.02077530	      0.29061325	     12.47208702	      2.87355160	      3.24927758	    -64.48599861	     -2.95563460	    -18.63759333	     27.09290954	     -7.25507755	      0.61497528	      8.56243520	      6.97464586	      6.22373825	      0.00000000	      0.00000000	      0.00000000	      0.00000000	      0.00000000	      2.10478029	    -13.13909314	     -2.69849769	      5.58597834
      0.33333333	      4.29117022	     -1.50840835	     -5.54098952	     -0.41500673	      1.02110633	      0.29017292	     12.98219481	      2.92089738	      3.25807208	    -64.19778590	     -2.90278349	    -18.63223357	     27.09091081	     -7.53784709	      0.68235472	      8.56676945	      6.73327420	      5.99141374	      0.00000000	      0.00000000	      0.00000000	      0.00000000	      0.00000000	      2.14559621	    -13.24243592	     -2.68904071	      5.58059218
      0.33750000	      4.27051842	     -1.74796929	     -5.38743030	     -0.41009877	      1.02131613	      0.28964349	     13.44856871	      3.23722902	      3.21209497	    -63.75254758	     -2.15235059	    -18.13828259	     27.33983174	     -8.00539768	      0.41579382	      8.75603329	      7.19017621	      6.23634857	      0.00000000	      0.00000000	      0.00000000	      0.00000000	      0.00000000	      2.29706100	    -13.23384039	     -2.33047462	      5.29229772
      0.34166667	      4.33567074	     -1.74216187	     -5.30501581	     -0.40564393	      1.02157122	      0.28923328	     13.95826773	      3.27410355	      3.22064002	    -63.42229299	     -2.10110731	    -18.13159151	     27.33503293	     -8.27850577	      0.48396826	      8.76343856	      6.94559430	      6.00404474	      0.00000000	      0.00000000	      0.00000000	      0.00000000	      0.00000000	      2.34397522	    -13.34748892	     -2.32550727	      5.28444806
      0.34583333	      4.31791405	     -1.92238700	     -5.12879715	     -0.40084201	      1.02178938	      0.28876802	     14.39169927	      3.55820872	      3.22431937	    -62.89074097	     -1.50657050	    -17.99725536	     27.45219823	     -8.63562406	      0.28946189	      8.92550956	      7.12072724	      6.08837360	      0.00000000	      0.00000000	      0.00000000	      0.00000000	      0.00000000	      2.60517374	    -13.34179845	     -2.06285694	      5.10745968
      0.35000000	      4.33774384	     -2.11726152	     -4.97880171	     -0.39607692	      1.02196810	      0.28824459	     14.82942323	      3.78006185	      3.12833413	    -62.37865532	     -1.11312554	    -17.63256495	     27.52933038	     -9.11016012	      0.07911544	      9.07387699	      7.51886657	      6.28117770	      0.00000000	      0.00000000	      0.00000000	      0.00000000	      0.00000000	      2.62333097	    -13.39100289	     -1.76102513	      4.82228647
      0.35416667	      4.38809048	     -2.15989181	     -4.87788743	     -0.39150229	      1.02215784	      0.28787590	     15.26657273	      3.87397233	      3.14160888	    -61.88495573	     -0.91878119	    -17.55175731	     27.53397800	     -9.44790508	      0.06618888	      9.14896798	      7.46833796	      6.18741365	      0.00000000	      0.00000000	      0.00000000	      0.00000000	      0.00000000	      2.74924970	    -13.46801666	     -1.70468127	      4.74486640
      0.35833333	      4.40419790	     -2.32676031	     -4.70642832	     -0.38681178	      1.02230682	      0.28740608	     15.67388772	      4.09423720	      3.09408193	    -61.30932350	     -0.49586582	    -17.40158899	     27.54815703	     -9.84057273	     -0.11180086	      9.28169989	      7.67386248	      6.26985879	      0.00000000	      0.00000000	      0.00000000	      0.00000000	      0.00000000	      2.86117768	    -13.52477924	     -1.45198554	      4.54989674
      0.36250000	      4.44502200	     -2.31067625	     -4.60508698	     -0.38235480	      1.02242759	      0.28701892	     16.11980954	      4.11773130	      3.12736232	    -60.78253972	     -0.40798740	    -17.37676523	     27.53057425	    -10.11497802	     -0.05012668	      9.30832843	      7.53504190	      6.13316412	      0.00000000	      0.00000000	      0.00000000	      0.00000000	      0.00000000	      2.92863861	    -13.61497606	     -1.46014876	      4.50976642
      0.36666667	      4.45347400	     -2.53495106	     -4.41497614	     -0.37758367	      1.02254189	      0.28656317	     16.48906580	      4.38417950	      3.02478796	    -60.12109364	      0.03047373	    -17.22818765	     27.47176510	    -10.57205822	     -0.31968208	      9.50259004	      7.91603371	      6.31312053	      0.00000000	      0.00000000	      0.00000000	      0.00000000	      0.00000000	      3.05361718	    -13.64350409	     -1.13035472	      4.22962999
      0.37083333	      4.49843263	     -2.50575177	     -4.35864697	     -0.37331077	      1.02255904	      0.28627293	     16.97672871	      4.38409094	      3.03825863	    -59.64317162	      0.08203863	    -17.22535965	     27.45363417	    -10.82181922	     -0.23999482	      9.51662931	      7.70298871	      6.10464088	      0.00000000	      0.00000000	      0.00000000	      0.00000000	      0.00000000	      3.10612225	    -13.77547249	     -1.15079852	      4.21461304
